<mxfile host="Electron" modified="2024-04-08T09:44:57.950Z" agent="Mozilla/5.0 (X11; Linux x86_64) AppleWebKit/537.36 (KHTML, like Gecko) draw.io/21.6.5 Chrome/114.0.5735.289 Electron/25.9.8 Safari/537.36" etag="PWBWg3cchGtg8zUF5qAh" version="21.6.5" type="device">
  <diagram name="Page-1" id="IZ1iP5sBruCZ6rwAAdyG">
    <mxGraphModel dx="3110" dy="1865" grid="1" gridSize="10" guides="1" tooltips="1" connect="1" arrows="1" fold="1" page="1" pageScale="1" pageWidth="180" pageHeight="50" math="0" shadow="0">
      <root>
        <mxCell id="0" />
        <mxCell id="1" parent="0" />
        <object placeholders="1" c4Name="PMCCabe Service" c4Type="SystemScopeBoundary" c4Application="&quot;Microservices&quot;" label="&lt;font style=&quot;font-size: 16px&quot;&gt;&lt;b&gt;&lt;div style=&quot;text-align: left&quot;&gt;%c4Name%&lt;/div&gt;&lt;/b&gt;&lt;/font&gt;&lt;div style=&quot;text-align: left&quot;&gt;[%c4Application%]&lt;/div&gt;" id="Bd3FaW5UfeAnrvADQC-J-1">
          <mxCell style="rounded=0;fontSize=11;whiteSpace=wrap;html=1;arcSize=20;labelBackgroundColor=none;align=left;verticalAlign=top;labelBorderColor=none;spacingTop=0;spacing=10;metaEdit=1;rotatable=0;perimeter=rectanglePerimeter;noLabel=0;labelPadding=0;allowArrows=0;connectable=0;expand=0;recursiveResize=0;editable=1;pointerEvents=0;absoluteArcSize=1;points=[[0.25,0,0],[0.5,0,0],[0.75,0,0],[1,0.25,0],[1,0.5,0],[1,0.75,0],[0.75,1,0],[0.5,1,0],[0.25,1,0],[0,0.75,0],[0,0.5,0],[0,0.25,0]];fillColor=#d5e8d4;strokeColor=#82b366;dashed=1;glass=0;sketch=1;curveFitting=1;jiggle=2;shadow=0;" vertex="1" parent="1">
            <mxGeometry x="275" y="-270" width="430" height="990" as="geometry" />
          </mxCell>
        </object>
        <object placeholders="1" c4Name="Cyclomatic Complexity (CC)" c4Type="Container" c4Technology="Set of Python utils providing pseudo filesystem based API" c4Description="Evaluates CC metric of components comprised by a single project" label="&lt;font style=&quot;font-size: 16px&quot;&gt;&lt;b&gt;%c4Name%&lt;/b&gt;&lt;/font&gt;&lt;div&gt;[%c4Type%: %c4Technology%]&lt;/div&gt;&lt;br&gt;&lt;div&gt;&lt;font style=&quot;font-size: 11px&quot;&gt;&lt;font&gt;%c4Description%&lt;/font&gt;&lt;/font&gt;&lt;/div&gt;" id="Bd3FaW5UfeAnrvADQC-J-2">
          <mxCell style="rounded=1;whiteSpace=wrap;html=1;fontSize=11;labelBackgroundColor=none;fillColor=#dae8fc;align=center;arcSize=10;strokeColor=#6c8ebf;metaEdit=1;resizable=0;points=[[0.25,0,0],[0.5,0,0],[0.75,0,0],[1,0.25,0],[1,0.5,0],[1,0.75,0],[0.75,1,0],[0.5,1,0],[0.25,1,0],[0,0.75,0],[0,0.5,0],[0,0.25,0]];" vertex="1" parent="1">
            <mxGeometry x="305" y="37" width="240" height="120" as="geometry" />
          </mxCell>
        </object>
        <object placeholders="1" c4Name="RRD analytic" c4Type="Container" c4Technology="RRDTool, Python, ImageMagick" c4Description="The RRDTool and Python utils accumulating measured code metrics into DBs" label="&lt;font style=&quot;font-size: 16px&quot;&gt;&lt;b&gt;%c4Name%&lt;/b&gt;&lt;/font&gt;&lt;div&gt;[%c4Type%: %c4Technology%]&lt;/div&gt;&lt;br&gt;&lt;div&gt;&lt;font style=&quot;font-size: 11px&quot;&gt;&lt;font&gt;%c4Description%&lt;/font&gt;&lt;/font&gt;&lt;/div&gt;" id="Bd3FaW5UfeAnrvADQC-J-3">
          <mxCell style="rounded=1;whiteSpace=wrap;html=1;fontSize=11;labelBackgroundColor=none;fillColor=#fff2cc;align=center;arcSize=10;strokeColor=#d6b656;metaEdit=1;resizable=0;points=[[0.25,0,0],[0.5,0,0],[0.75,0,0],[1,0.25,0],[1,0.5,0],[1,0.75,0],[0.75,1,0],[0.5,1,0],[0.25,1,0],[0,0.75,0],[0,0.5,0],[0,0.25,0]];labelBorderColor=none;fontColor=#000000;" vertex="1" parent="1">
            <mxGeometry x="305" y="280" width="240" height="120" as="geometry" />
          </mxCell>
        </object>
        <object placeholders="1" c4Type="REST API" c4Container="Container" c4Technology="Python, Flask" c4Description="Collects and represents pseudo filesystem API of several services as a convenient REST API" label="&lt;font style=&quot;font-size: 16px&quot;&gt;&lt;b&gt;%c4Type%&lt;/b&gt;&lt;/font&gt;&lt;div&gt;[%c4Container%:&amp;nbsp;%c4Technology%]&lt;/div&gt;&lt;br&gt;&lt;div&gt;&lt;font style=&quot;font-size: 11px&quot;&gt;&lt;font&gt;%c4Description%&lt;/font&gt;&lt;/font&gt;&lt;/div&gt;" id="Bd3FaW5UfeAnrvADQC-J-4">
          <mxCell style="shape=mxgraph.c4.webBrowserContainer2;whiteSpace=wrap;html=1;boundedLbl=1;rounded=0;labelBackgroundColor=none;strokeColor=#82b366;fillColor=#d5e8d4;strokeColor=#118ACD;strokeColor2=#0E7DAD;fontSize=12;align=center;metaEdit=1;points=[[0.5,0,0],[1,0.25,0],[1,0.5,0],[1,0.75,0],[0.5,1,0],[0,0.75,0],[0,0.5,0],[0,0.25,0]];resizable=0;" vertex="1" parent="1">
            <mxGeometry x="325" y="525" width="240" height="160" as="geometry" />
          </mxCell>
        </object>
        <object placeholders="1" c4Name="Analytic Watcher" c4Type="Person" c4Description="Actor, who asks code metric analytics data via API" label="&lt;font style=&quot;font-size: 16px&quot;&gt;&lt;b&gt;%c4Name%&lt;/b&gt;&lt;/font&gt;&lt;div&gt;[%c4Type%]&lt;/div&gt;&lt;br&gt;&lt;div&gt;&lt;font style=&quot;font-size: 11px&quot;&gt;&lt;font color=&quot;#cccccc&quot;&gt;%c4Description%&lt;/font&gt;&lt;/div&gt;" id="Bd3FaW5UfeAnrvADQC-J-5">
          <mxCell style="html=1;fontSize=11;dashed=0;whiteSpace=wrap;fillColor=#083F75;strokeColor=#06315C;fontColor=#ffffff;shape=mxgraph.c4.person2;align=center;metaEdit=1;points=[[0.5,0,0],[1,0.5,0],[1,0.75,0],[0.75,1,0],[0.5,1,0],[0.25,1,0],[0,0.75,0],[0,0.5,0]];resizable=0;" vertex="1" parent="1">
            <mxGeometry x="-550" y="470" width="200" height="180" as="geometry" />
          </mxCell>
        </object>
        <mxCell id="Bd3FaW5UfeAnrvADQC-J-6" value="Volume: " style="shape=table;startSize=30;container=1;collapsible=0;childLayout=tableLayout;fontSize=16;align=left;verticalAlign=top;fontStyle=1;spacingLeft=6;spacing=0;resizable=0;strokeWidth=2;perimeterSpacing=0;rounded=0;shadow=1;gradientColor=none;fillStyle=auto;strokeColor=#000000;" vertex="1" parent="1">
          <mxGeometry x="-70" y="-60" width="210" height="400" as="geometry" />
        </mxCell>
        <mxCell id="Bd3FaW5UfeAnrvADQC-J-7" value="" style="shape=tableRow;horizontal=0;startSize=0;swimlaneHead=0;swimlaneBody=0;strokeColor=inherit;top=0;left=0;bottom=0;right=0;collapsible=0;dropTarget=0;fillColor=none;points=[[0,0.5],[1,0.5]];portConstraint=eastwest;fontSize=12;" vertex="1" parent="Bd3FaW5UfeAnrvADQC-J-6">
          <mxGeometry y="30" width="210" height="36" as="geometry" />
        </mxCell>
        <mxCell id="Bd3FaW5UfeAnrvADQC-J-8" value="&lt;b&gt;api.pmccabe_collector.restapi.org&lt;/b&gt;&lt;br&gt;&amp;lt;local host path&amp;gt;" style="shape=partialRectangle;html=1;whiteSpace=wrap;connectable=0;overflow=hidden;top=0;left=0;bottom=0;right=0;pointerEvents=1;fontSize=12;align=left;spacingLeft=10;spacingRight=4;" vertex="1" parent="Bd3FaW5UfeAnrvADQC-J-7">
          <mxGeometry width="210" height="36" as="geometry">
            <mxRectangle width="210" height="36" as="alternateBounds" />
          </mxGeometry>
        </mxCell>
        <mxCell id="Bd3FaW5UfeAnrvADQC-J-48" value="" style="shape=tableRow;horizontal=0;startSize=0;swimlaneHead=0;swimlaneBody=0;strokeColor=inherit;top=0;left=0;bottom=0;right=0;collapsible=0;dropTarget=0;fillColor=none;points=[[0,0.5],[1,0.5]];portConstraint=eastwest;fontSize=12;" vertex="1" parent="Bd3FaW5UfeAnrvADQC-J-6">
          <mxGeometry y="66" width="210" height="34" as="geometry" />
        </mxCell>
        <mxCell id="Bd3FaW5UfeAnrvADQC-J-49" value="&lt;b&gt;VCS_Project:&lt;/b&gt;" style="shape=partialRectangle;html=1;whiteSpace=wrap;connectable=0;strokeColor=#82b366;overflow=hidden;fillColor=#d5e8d4;top=0;left=0;bottom=0;right=0;pointerEvents=1;fontSize=12;align=left;spacingLeft=10;spacingRight=4;" vertex="1" parent="Bd3FaW5UfeAnrvADQC-J-48">
          <mxGeometry width="210" height="34" as="geometry">
            <mxRectangle width="210" height="34" as="alternateBounds" />
          </mxGeometry>
        </mxCell>
        <mxCell id="Bd3FaW5UfeAnrvADQC-J-50" value="" style="shape=tableRow;horizontal=0;startSize=0;swimlaneHead=0;swimlaneBody=0;strokeColor=inherit;top=0;left=0;bottom=0;right=0;collapsible=0;dropTarget=0;fillColor=none;points=[[0,0.5],[1,0.5]];portConstraint=eastwest;fontSize=12;" vertex="1" parent="Bd3FaW5UfeAnrvADQC-J-6">
          <mxGeometry y="100" width="210" height="40" as="geometry" />
        </mxCell>
        <mxCell id="Bd3FaW5UfeAnrvADQC-J-51" value="-git" style="shape=partialRectangle;html=1;whiteSpace=wrap;connectable=0;strokeColor=#82b366;overflow=hidden;fillColor=#d5e8d4;top=0;left=0;bottom=0;right=0;pointerEvents=1;fontSize=12;align=left;spacingLeft=10;spacingRight=4;" vertex="1" parent="Bd3FaW5UfeAnrvADQC-J-50">
          <mxGeometry width="210" height="40" as="geometry">
            <mxRectangle width="210" height="40" as="alternateBounds" />
          </mxGeometry>
        </mxCell>
        <mxCell id="Bd3FaW5UfeAnrvADQC-J-9" value="" style="shape=tableRow;horizontal=0;startSize=0;swimlaneHead=0;swimlaneBody=0;strokeColor=inherit;top=0;left=0;bottom=0;right=0;collapsible=0;dropTarget=0;fillColor=none;points=[[0,0.5],[1,0.5]];portConstraint=eastwest;fontSize=12;" vertex="1" parent="Bd3FaW5UfeAnrvADQC-J-6">
          <mxGeometry y="140" width="210" height="34" as="geometry" />
        </mxCell>
        <mxCell id="Bd3FaW5UfeAnrvADQC-J-10" value="&lt;b&gt;CC:&lt;/b&gt;" style="shape=partialRectangle;html=1;whiteSpace=wrap;connectable=0;strokeColor=#6c8ebf;overflow=hidden;fillColor=#dae8fc;top=0;left=0;bottom=0;right=0;pointerEvents=1;fontSize=12;align=left;spacingLeft=10;spacingRight=4;" vertex="1" parent="Bd3FaW5UfeAnrvADQC-J-9">
          <mxGeometry width="210" height="34" as="geometry">
            <mxRectangle width="210" height="34" as="alternateBounds" />
          </mxGeometry>
        </mxCell>
        <mxCell id="Bd3FaW5UfeAnrvADQC-J-11" value="" style="shape=tableRow;horizontal=0;startSize=0;swimlaneHead=0;swimlaneBody=0;strokeColor=inherit;top=0;left=0;bottom=0;right=0;collapsible=0;dropTarget=0;fillColor=none;points=[[0,0.5],[1,0.5]];portConstraint=eastwest;fontSize=12;" vertex="1" parent="Bd3FaW5UfeAnrvADQC-J-6">
          <mxGeometry y="174" width="210" height="90" as="geometry" />
        </mxCell>
        <mxCell id="Bd3FaW5UfeAnrvADQC-J-12" value="-watch_list&lt;br&gt;-view&lt;br&gt;-statistic&lt;br&gt;-flamegraph" style="shape=partialRectangle;html=1;whiteSpace=wrap;connectable=0;strokeColor=#6c8ebf;overflow=hidden;fillColor=#dae8fc;top=0;left=0;bottom=0;right=0;pointerEvents=1;fontSize=12;align=left;spacingLeft=10;spacingRight=4;" vertex="1" parent="Bd3FaW5UfeAnrvADQC-J-11">
          <mxGeometry width="210" height="90" as="geometry">
            <mxRectangle width="210" height="90" as="alternateBounds" />
          </mxGeometry>
        </mxCell>
        <mxCell id="Bd3FaW5UfeAnrvADQC-J-13" value="" style="shape=tableRow;horizontal=0;startSize=0;swimlaneHead=0;swimlaneBody=0;strokeColor=inherit;top=0;left=0;bottom=0;right=0;collapsible=0;dropTarget=0;fillColor=none;points=[[0,0.5],[1,0.5]];portConstraint=eastwest;fontSize=12;" vertex="1" parent="Bd3FaW5UfeAnrvADQC-J-6">
          <mxGeometry y="264" width="210" height="36" as="geometry" />
        </mxCell>
        <mxCell id="Bd3FaW5UfeAnrvADQC-J-14" value="&lt;b&gt;RRD Analytic:&lt;/b&gt;" style="shape=partialRectangle;html=1;whiteSpace=wrap;connectable=0;strokeColor=#d6b656;overflow=hidden;fillColor=#fff2cc;top=0;left=0;bottom=0;right=0;pointerEvents=1;fontSize=12;align=left;spacingLeft=10;spacingRight=4;" vertex="1" parent="Bd3FaW5UfeAnrvADQC-J-13">
          <mxGeometry width="210" height="36" as="geometry">
            <mxRectangle width="210" height="36" as="alternateBounds" />
          </mxGeometry>
        </mxCell>
        <mxCell id="Bd3FaW5UfeAnrvADQC-J-15" value="" style="shape=tableRow;horizontal=0;startSize=0;swimlaneHead=0;swimlaneBody=0;strokeColor=inherit;top=0;left=0;bottom=0;right=0;collapsible=0;dropTarget=0;fillColor=none;points=[[0,0.5],[1,0.5]];portConstraint=eastwest;fontSize=12;" vertex="1" parent="Bd3FaW5UfeAnrvADQC-J-6">
          <mxGeometry y="300" width="210" height="100" as="geometry" />
        </mxCell>
        <mxCell id="Bd3FaW5UfeAnrvADQC-J-16" value="-analytic&lt;br&gt;-rrd&lt;br&gt;-rrd_select&lt;br&gt;-rrd_collect&lt;br&gt;-rrd_view&lt;br&gt;-rrd_plot_view" style="shape=partialRectangle;html=1;whiteSpace=wrap;connectable=0;strokeColor=#d6b656;overflow=hidden;fillColor=#fff2cc;top=0;left=0;bottom=0;right=0;pointerEvents=1;fontSize=12;align=left;spacingLeft=10;spacingRight=4;" vertex="1" parent="Bd3FaW5UfeAnrvADQC-J-15">
          <mxGeometry width="210" height="100" as="geometry">
            <mxRectangle width="210" height="100" as="alternateBounds" />
          </mxGeometry>
        </mxCell>
        <object placeholders="1" c4Type="Relationship" id="Bd3FaW5UfeAnrvADQC-J-17">
          <mxCell style="endArrow=blockThin;html=1;fontSize=10;fontColor=#404040;strokeWidth=6;endFill=1;strokeColor=#333333;elbow=vertical;metaEdit=1;endSize=14;startSize=14;jumpStyle=arc;jumpSize=16;rounded=0;edgeStyle=orthogonalEdgeStyle;exitX=0;exitY=0.5;exitDx=0;exitDy=0;exitPerimeter=0;entryX=1;entryY=0.5;entryDx=0;entryDy=0;" edge="1" parent="1" source="Bd3FaW5UfeAnrvADQC-J-3" target="Bd3FaW5UfeAnrvADQC-J-13">
            <mxGeometry width="240" relative="1" as="geometry">
              <mxPoint x="25" y="420" as="sourcePoint" />
              <mxPoint x="195" y="222" as="targetPoint" />
              <Array as="points">
                <mxPoint x="305" y="338" />
                <mxPoint x="200" y="338" />
                <mxPoint x="200" y="222" />
              </Array>
            </mxGeometry>
          </mxCell>
        </object>
        <mxCell id="Bd3FaW5UfeAnrvADQC-J-18" value="Export API" style="edgeLabel;html=1;align=center;verticalAlign=middle;resizable=0;points=[];fontSize=15;labelBackgroundColor=none;fontStyle=1" vertex="1" connectable="0" parent="Bd3FaW5UfeAnrvADQC-J-17">
          <mxGeometry x="-0.2222" y="-3" relative="1" as="geometry">
            <mxPoint x="37" y="-17" as="offset" />
          </mxGeometry>
        </mxCell>
        <object placeholders="1" c4Type="Relationship" c4Technology="statistic, view, watch_list" c4Description="Consume CC API" label="&lt;div style=&quot;text-align: left; font-size: 14px;&quot;&gt;&lt;div style=&quot;text-align: center; font-size: 14px;&quot;&gt;&lt;b style=&quot;font-size: 14px;&quot;&gt;%c4Description%&lt;/b&gt;&lt;/div&gt;&lt;div style=&quot;text-align: center; font-size: 14px;&quot;&gt;[%c4Technology%]&lt;/div&gt;&lt;/div&gt;" id="Bd3FaW5UfeAnrvADQC-J-19">
          <mxCell style="endArrow=blockThin;html=1;fontSize=14;fontColor=#0000CC;strokeWidth=5;endFill=1;strokeColor=#6c8ebf;elbow=vertical;metaEdit=1;endSize=14;startSize=14;jumpStyle=arc;jumpSize=16;rounded=0;edgeStyle=orthogonalEdgeStyle;exitX=1;exitY=0.5;exitDx=0;exitDy=0;entryX=0.471;entryY=0.008;entryDx=0;entryDy=0;entryPerimeter=0;labelBackgroundColor=none;fillColor=#dae8fc;" edge="1" parent="1" source="Bd3FaW5UfeAnrvADQC-J-11" target="Bd3FaW5UfeAnrvADQC-J-3">
            <mxGeometry x="0.0494" y="-30" width="240" relative="1" as="geometry">
              <mxPoint x="195" y="159" as="sourcePoint" />
              <mxPoint x="265" y="420" as="targetPoint" />
              <Array as="points">
                <mxPoint x="140" y="190" />
                <mxPoint x="418" y="190" />
              </Array>
              <mxPoint as="offset" />
            </mxGeometry>
          </mxCell>
        </object>
        <object placeholders="1" c4Type="Export API" id="Bd3FaW5UfeAnrvADQC-J-20">
          <mxCell style="endArrow=blockThin;html=1;fontSize=10;fontColor=#404040;strokeWidth=6;endFill=1;strokeColor=#4D4D4D;elbow=vertical;metaEdit=1;endSize=14;startSize=14;jumpStyle=arc;jumpSize=16;rounded=0;edgeStyle=orthogonalEdgeStyle;exitX=0;exitY=0.5;exitDx=0;exitDy=0;exitPerimeter=0;entryX=1;entryY=0.5;entryDx=0;entryDy=0;" edge="1" parent="1" source="Bd3FaW5UfeAnrvADQC-J-2" target="Bd3FaW5UfeAnrvADQC-J-9">
            <mxGeometry width="240" relative="1" as="geometry">
              <mxPoint x="25" y="420" as="sourcePoint" />
              <mxPoint x="195" y="97.00000000000023" as="targetPoint" />
              <Array as="points" />
            </mxGeometry>
          </mxCell>
        </object>
        <mxCell id="Bd3FaW5UfeAnrvADQC-J-21" value="Export API" style="edgeLabel;html=1;align=center;verticalAlign=middle;resizable=0;points=[];fontSize=15;labelBackgroundColor=none;fontStyle=1" vertex="1" connectable="0" parent="Bd3FaW5UfeAnrvADQC-J-20">
          <mxGeometry x="-0.1231" y="-4" relative="1" as="geometry">
            <mxPoint x="9" y="-18" as="offset" />
          </mxGeometry>
        </mxCell>
        <mxCell id="Bd3FaW5UfeAnrvADQC-J-22" value="PROJECT_URL" style="shape=table;startSize=30;container=1;collapsible=0;childLayout=tableLayout;fontSize=16;align=left;verticalAlign=top;fontStyle=1;spacingLeft=6;spacing=0;resizable=0;strokeWidth=3;" vertex="1" parent="1">
          <mxGeometry x="-70" y="-345" width="200" height="66" as="geometry" />
        </mxCell>
        <mxCell id="Bd3FaW5UfeAnrvADQC-J-23" value="" style="shape=tableRow;horizontal=0;startSize=0;swimlaneHead=0;swimlaneBody=0;strokeColor=inherit;top=0;left=0;bottom=0;right=0;collapsible=0;dropTarget=0;fillColor=none;points=[[0,0.5],[1,0.5]];portConstraint=eastwest;fontSize=12;" vertex="1" parent="Bd3FaW5UfeAnrvADQC-J-22">
          <mxGeometry y="30" width="200" height="36" as="geometry" />
        </mxCell>
        <mxCell id="Bd3FaW5UfeAnrvADQC-J-24" value="&amp;lt;project to analysis &amp;gt;" style="shape=partialRectangle;html=1;whiteSpace=wrap;connectable=0;overflow=hidden;top=0;left=0;bottom=0;right=0;pointerEvents=1;fontSize=12;align=left;spacingLeft=10;spacingRight=4;" vertex="1" parent="Bd3FaW5UfeAnrvADQC-J-23">
          <mxGeometry width="200" height="36" as="geometry">
            <mxRectangle width="200" height="36" as="alternateBounds" />
          </mxGeometry>
        </mxCell>
        <object placeholders="1" c4Type="Relationship" c4Description="Import ENV variable" label="&lt;div style=&quot;text-align: left; font-size: 15px;&quot;&gt;&lt;div style=&quot;text-align: center; font-size: 15px;&quot;&gt;&lt;b style=&quot;font-size: 15px;&quot;&gt;%c4Description%&lt;/b&gt;&lt;/div&gt;&lt;/div&gt;" id="Bd3FaW5UfeAnrvADQC-J-25">
          <mxCell style="endArrow=blockThin;html=1;fontSize=15;fontColor=#CC0000;strokeWidth=4;endFill=1;strokeColor=#b85450;elbow=vertical;metaEdit=1;endSize=14;startSize=14;jumpStyle=arc;jumpSize=16;rounded=1;edgeStyle=orthogonalEdgeStyle;exitX=1;exitY=0.25;exitDx=0;exitDy=0;entryX=0.5;entryY=0;entryDx=0;entryDy=0;entryPerimeter=0;fillColor=#f8cecc;labelBackgroundColor=none;dashed=1;dashPattern=1 1;" edge="1" parent="1" source="Bd3FaW5UfeAnrvADQC-J-22" target="Bd3FaW5UfeAnrvADQC-J-40">
            <mxGeometry x="0.2655" y="-21" width="240" relative="1" as="geometry">
              <mxPoint x="185" y="-328.5000000000002" as="sourcePoint" />
              <mxPoint x="245" y="60" as="targetPoint" />
              <mxPoint x="21" y="-21" as="offset" />
            </mxGeometry>
          </mxCell>
        </object>
        <object placeholders="1" c4Type="Relationship" c4Description="Import API" label="&lt;div style=&quot;text-align: left; font-size: 15px;&quot;&gt;&lt;div style=&quot;text-align: center; font-size: 15px;&quot;&gt;&lt;b style=&quot;font-size: 15px;&quot;&gt;%c4Description%&lt;/b&gt;&lt;/div&gt;&lt;/div&gt;" id="Bd3FaW5UfeAnrvADQC-J-26">
          <mxCell style="endArrow=blockThin;html=1;fontSize=15;fontColor=#CC0000;strokeWidth=4;endFill=1;strokeColor=#b85450;elbow=vertical;metaEdit=1;endSize=14;startSize=14;jumpStyle=arc;jumpSize=16;rounded=1;edgeStyle=orthogonalEdgeStyle;exitX=1;exitY=0.5;exitDx=0;exitDy=0;fillColor=#f8cecc;entryX=0.625;entryY=0.031;entryDx=0;entryDy=0;entryPerimeter=0;dashed=1;dashPattern=1 1;labelBackgroundColor=none;" edge="1" parent="1" source="Bd3FaW5UfeAnrvADQC-J-11" target="Bd3FaW5UfeAnrvADQC-J-4">
            <mxGeometry x="-0.7749" y="19" width="240" relative="1" as="geometry">
              <mxPoint x="195" y="159" as="sourcePoint" />
              <mxPoint x="135" y="510" as="targetPoint" />
              <Array as="points">
                <mxPoint x="270" y="159" />
                <mxPoint x="270" y="180" />
                <mxPoint x="655" y="180" />
                <mxPoint x="655" y="470" />
                <mxPoint x="475" y="470" />
              </Array>
              <mxPoint as="offset" />
            </mxGeometry>
          </mxCell>
        </object>
        <object placeholders="1" c4Type="Relationship" c4Description="Import API" label="&lt;div style=&quot;text-align: left; font-size: 15px;&quot;&gt;&lt;div style=&quot;text-align: center; font-size: 15px;&quot;&gt;&lt;b style=&quot;font-size: 15px;&quot;&gt;%c4Description%&lt;/b&gt;&lt;/div&gt;&lt;/div&gt;" id="Bd3FaW5UfeAnrvADQC-J-27">
          <mxCell style="endArrow=blockThin;html=1;fontSize=15;fontColor=#CC0000;strokeWidth=4;endFill=1;strokeColor=#b85450;elbow=vertical;metaEdit=1;endSize=14;startSize=14;jumpStyle=arc;jumpSize=16;rounded=1;edgeStyle=orthogonalEdgeStyle;exitX=1;exitY=0.5;exitDx=0;exitDy=0;entryX=0.5;entryY=0;entryDx=0;entryDy=0;entryPerimeter=0;fillColor=#f8cecc;dashed=1;dashPattern=1 1;labelBackgroundColor=none;" edge="1" parent="1" source="Bd3FaW5UfeAnrvADQC-J-15" target="Bd3FaW5UfeAnrvADQC-J-4">
            <mxGeometry x="0.0309" y="20" width="240" relative="1" as="geometry">
              <mxPoint x="195" y="290.0000000000002" as="sourcePoint" />
              <mxPoint x="95" y="535" as="targetPoint" />
              <Array as="points">
                <mxPoint x="180" y="290" />
                <mxPoint x="180" y="470" />
                <mxPoint x="445" y="470" />
              </Array>
              <mxPoint as="offset" />
            </mxGeometry>
          </mxCell>
        </object>
        <object placeholders="1" c4Type="Relationship" c4Technology="statistic,&#xa;watch_list" c4Description="Consume API" label="&lt;div style=&quot;text-align: left; font-size: 14px;&quot;&gt;&lt;div style=&quot;text-align: center; font-size: 14px;&quot;&gt;&lt;b style=&quot;font-size: 14px;&quot;&gt;%c4Description%&lt;/b&gt;&lt;/div&gt;&lt;div style=&quot;text-align: center; font-size: 14px;&quot;&gt;[%c4Technology%]&lt;/div&gt;&lt;/div&gt;" id="Bd3FaW5UfeAnrvADQC-J-28">
          <mxCell style="endArrow=blockThin;html=1;fontSize=14;fontColor=#0000CC;strokeWidth=3;endFill=1;strokeColor=#0000CC;elbow=vertical;metaEdit=1;endSize=14;startSize=14;jumpStyle=arc;jumpSize=16;rounded=0;edgeStyle=orthogonalEdgeStyle;exitX=1;exitY=0.5;exitDx=0;exitDy=0;exitPerimeter=0;labelBackgroundColor=none;" edge="1" parent="1" source="Bd3FaW5UfeAnrvADQC-J-71">
            <mxGeometry x="0.2841" y="55" width="240" relative="1" as="geometry">
              <mxPoint x="-50" y="330" as="sourcePoint" />
              <mxPoint x="-70" y="145" as="targetPoint" />
              <Array as="points">
                <mxPoint x="-310" y="145" />
              </Array>
              <mxPoint as="offset" />
            </mxGeometry>
          </mxCell>
        </object>
        <object placeholders="1" c4Type="Relationship" c4Technology="analytic,&#xa;rrd,&#xa;rrd_select,&#xa;rrd_collect" c4Description="Consume API" label="&lt;div style=&quot;text-align: left; font-size: 14px;&quot;&gt;&lt;div style=&quot;text-align: center; font-size: 14px;&quot;&gt;&lt;b style=&quot;font-size: 14px;&quot;&gt;%c4Description%&lt;/b&gt;&lt;/div&gt;&lt;div style=&quot;text-align: center; font-size: 14px;&quot;&gt;[%c4Technology%]&lt;/div&gt;&lt;/div&gt;" id="Bd3FaW5UfeAnrvADQC-J-29">
          <mxCell style="endArrow=blockThin;html=1;fontSize=14;fontColor=#0000CC;strokeWidth=3;endFill=1;strokeColor=#0000CC;elbow=vertical;metaEdit=1;endSize=14;startSize=14;jumpStyle=arc;jumpSize=16;rounded=0;edgeStyle=orthogonalEdgeStyle;exitX=1;exitY=0.5;exitDx=0;exitDy=0;exitPerimeter=0;labelBackgroundColor=none;entryX=0;entryY=0.5;entryDx=0;entryDy=0;" edge="1" parent="1" source="Bd3FaW5UfeAnrvADQC-J-71" target="Bd3FaW5UfeAnrvADQC-J-15">
            <mxGeometry x="0.5056" y="60" width="240" relative="1" as="geometry">
              <mxPoint x="-310" y="425" as="sourcePoint" />
              <mxPoint x="-70" y="270" as="targetPoint" />
              <Array as="points">
                <mxPoint x="-350" y="290" />
              </Array>
              <mxPoint x="1" as="offset" />
            </mxGeometry>
          </mxCell>
        </object>
        <object placeholders="1" c4Type="Relationship" c4Technology="statistic,&#xa;view,&#xa;watch_list,&#xa;flamegraph&#xa;analytic,&#xa;rrd,&#xa;rrd_select,&#xa;rrd_collect,&#xa;rrd_view,&#xa;rrd_plot_view" c4Description="Consume REST API" label="&lt;div style=&quot;text-align: left; font-size: 14px;&quot;&gt;&lt;div style=&quot;text-align: center; font-size: 14px;&quot;&gt;&lt;b style=&quot;font-size: 14px;&quot;&gt;%c4Description%&lt;/b&gt;&lt;/div&gt;&lt;div style=&quot;text-align: center; font-size: 14px;&quot;&gt;[%c4Technology%]&lt;/div&gt;&lt;/div&gt;" id="Bd3FaW5UfeAnrvADQC-J-30">
          <mxCell style="endArrow=blockThin;html=1;fontSize=14;fontColor=#0000CC;strokeWidth=3;endFill=1;strokeColor=#0000CC;elbow=vertical;metaEdit=1;endSize=14;startSize=14;jumpStyle=arc;jumpSize=16;rounded=0;edgeStyle=orthogonalEdgeStyle;exitX=1;exitY=0.75;exitDx=0;exitDy=0;exitPerimeter=0;entryX=0.06;entryY=0.5;entryDx=0;entryDy=0;entryPerimeter=0;labelBackgroundColor=none;" edge="1" parent="1" target="Bd3FaW5UfeAnrvADQC-J-32" source="Bd3FaW5UfeAnrvADQC-J-5">
            <mxGeometry x="0.2431" y="105" width="240" relative="1" as="geometry">
              <mxPoint x="-310" y="425" as="sourcePoint" />
              <mxPoint x="-180" y="590" as="targetPoint" />
              <Array as="points">
                <mxPoint x="-320" y="605" />
                <mxPoint x="-320" y="605" />
              </Array>
              <mxPoint as="offset" />
            </mxGeometry>
          </mxCell>
        </object>
        <object placeholders="1" c4Name="Admin" c4Type="Person" c4Description="Commence initial setup" label="&lt;font style=&quot;font-size: 16px&quot;&gt;&lt;b&gt;%c4Name%&lt;/b&gt;&lt;/font&gt;&lt;div&gt;[%c4Type%]&lt;/div&gt;&lt;br&gt;&lt;div&gt;&lt;font style=&quot;font-size: 11px&quot;&gt;&lt;font color=&quot;#cccccc&quot;&gt;%c4Description%&lt;/font&gt;&lt;/div&gt;" id="Bd3FaW5UfeAnrvADQC-J-31">
          <mxCell style="html=1;fontSize=11;dashed=0;whiteSpace=wrap;fillColor=#083F75;strokeColor=#06315C;fontColor=#ffffff;shape=mxgraph.c4.person2;align=center;metaEdit=1;points=[[0.5,0,0],[1,0.5,0],[1,0.75,0],[0.75,1,0],[0.5,1,0],[0.25,1,0],[0,0.75,0],[0,0.5,0]];resizable=0;" vertex="1" parent="1">
            <mxGeometry x="-520" y="-380" width="200" height="180" as="geometry" />
          </mxCell>
        </object>
        <mxCell id="Bd3FaW5UfeAnrvADQC-J-32" value="&lt;font color=&quot;#000000&quot; style=&quot;font-size: 20px;&quot;&gt;WEB&lt;/font&gt;" style="html=1;outlineConnect=0;fillColor=#CCCCCC;strokeColor=#6881B3;gradientColor=none;gradientDirection=north;strokeWidth=2;shape=mxgraph.networks.cloud;fontColor=#ffffff;fontSize=20;" vertex="1" parent="1">
          <mxGeometry x="-70" y="570" width="160" height="70" as="geometry" />
        </mxCell>
        <object placeholders="1" c4Type="Relationship" id="Bd3FaW5UfeAnrvADQC-J-33">
          <mxCell style="endArrow=blockThin;html=1;fontSize=10;fontColor=#404040;strokeWidth=3;endFill=1;strokeColor=#00CC00;elbow=vertical;metaEdit=1;endSize=14;startSize=14;jumpStyle=arc;jumpSize=16;rounded=0;edgeStyle=orthogonalEdgeStyle;exitX=1;exitY=0.75;exitDx=0;exitDy=0;exitPerimeter=0;entryX=0;entryY=0.25;entryDx=0;entryDy=0;" edge="1" parent="1" source="Bd3FaW5UfeAnrvADQC-J-31" target="Bd3FaW5UfeAnrvADQC-J-22">
            <mxGeometry width="240" relative="1" as="geometry">
              <mxPoint x="-30" y="320" as="sourcePoint" />
              <mxPoint x="210" y="320" as="targetPoint" />
            </mxGeometry>
          </mxCell>
        </object>
        <mxCell id="Bd3FaW5UfeAnrvADQC-J-34" value="SET" style="edgeLabel;html=1;align=center;verticalAlign=middle;resizable=0;points=[];fontColor=#006600;fontSize=15;" vertex="1" connectable="0" parent="Bd3FaW5UfeAnrvADQC-J-33">
          <mxGeometry x="0.4508" y="-4" relative="1" as="geometry">
            <mxPoint x="42" y="-26" as="offset" />
          </mxGeometry>
        </mxCell>
        <object placeholders="1" c4Type="Relationship" id="Bd3FaW5UfeAnrvADQC-J-35">
          <mxCell style="endArrow=blockThin;html=1;fontSize=10;fontColor=#404040;strokeWidth=3;endFill=1;strokeColor=#00CC00;elbow=vertical;metaEdit=1;endSize=14;startSize=14;jumpStyle=arc;jumpSize=16;rounded=0;edgeStyle=orthogonalEdgeStyle;exitX=1;exitY=0.75;exitDx=0;exitDy=0;exitPerimeter=0;entryX=0;entryY=0.023;entryDx=0;entryDy=0;entryPerimeter=0;" edge="1" parent="1">
            <mxGeometry width="240" relative="1" as="geometry">
              <mxPoint x="-320" y="-241" as="sourcePoint" />
              <mxPoint x="-70" y="-46.799999999999955" as="targetPoint" />
              <Array as="points">
                <mxPoint x="-320" y="-246" />
                <mxPoint x="-195" y="-246" />
                <mxPoint x="-195" y="-47" />
              </Array>
            </mxGeometry>
          </mxCell>
        </object>
        <mxCell id="Bd3FaW5UfeAnrvADQC-J-36" value="CREATE" style="edgeLabel;html=1;align=center;verticalAlign=middle;resizable=0;points=[];fontSize=15;fontColor=#006600;" vertex="1" connectable="0" parent="Bd3FaW5UfeAnrvADQC-J-35">
          <mxGeometry x="0.7411" y="1" relative="1" as="geometry">
            <mxPoint x="18" y="-20" as="offset" />
          </mxGeometry>
        </mxCell>
        <object placeholders="1" c4Type="Relationship" id="Bd3FaW5UfeAnrvADQC-J-37">
          <mxCell style="endArrow=blockThin;html=1;fontSize=10;fontColor=#404040;strokeWidth=6;endFill=1;strokeColor=#333333;elbow=vertical;metaEdit=1;endSize=14;startSize=14;jumpStyle=arc;jumpSize=16;rounded=0;edgeStyle=orthogonalEdgeStyle;exitX=-0.012;exitY=0.544;exitDx=0;exitDy=0;exitPerimeter=0;entryX=0.91;entryY=0.5;entryDx=0;entryDy=0;entryPerimeter=0;" edge="1" parent="1" source="Bd3FaW5UfeAnrvADQC-J-4" target="Bd3FaW5UfeAnrvADQC-J-32">
            <mxGeometry width="240" relative="1" as="geometry">
              <mxPoint x="328.1" y="605" as="sourcePoint" />
              <mxPoint x="90.00000000000009" y="605" as="targetPoint" />
              <Array as="points">
                <mxPoint x="322" y="605" />
              </Array>
            </mxGeometry>
          </mxCell>
        </object>
        <mxCell id="Bd3FaW5UfeAnrvADQC-J-38" value="Export API" style="edgeLabel;html=1;align=center;verticalAlign=middle;resizable=0;points=[];labelBackgroundColor=none;fontSize=15;fontStyle=1" vertex="1" connectable="0" parent="Bd3FaW5UfeAnrvADQC-J-37">
          <mxGeometry x="-0.2222" y="-3" relative="1" as="geometry">
            <mxPoint x="-7" y="-17" as="offset" />
          </mxGeometry>
        </mxCell>
        <mxCell id="Bd3FaW5UfeAnrvADQC-J-39" value="Analytic UC v.0.1&lt;br&gt;- initial diagram" style="text;html=1;strokeColor=none;fillColor=none;align=left;verticalAlign=middle;whiteSpace=wrap;rounded=0;" vertex="1" parent="1">
          <mxGeometry x="750" y="-475" width="120" height="30" as="geometry" />
        </mxCell>
        <object placeholders="1" c4Name="VCS_Project" c4Type="Container" c4Technology="Version Control System (git etc.)" c4Description="Local copy of a project repository" label="&lt;font style=&quot;font-size: 16px&quot;&gt;&lt;b&gt;%c4Name%&lt;/b&gt;&lt;/font&gt;&lt;div&gt;[%c4Type%: %c4Technology%]&lt;/div&gt;&lt;br&gt;&lt;div&gt;&lt;font style=&quot;font-size: 11px&quot;&gt;&lt;font color=&quot;#E6E6E6&quot;&gt;%c4Description%&lt;/font&gt;&lt;/div&gt;" id="Bd3FaW5UfeAnrvADQC-J-40">
          <mxCell style="rounded=1;whiteSpace=wrap;html=1;fontSize=11;labelBackgroundColor=none;fillColor=#d5e8d4;align=center;arcSize=10;strokeColor=#82b366;metaEdit=1;resizable=0;points=[[0.25,0,0],[0.5,0,0],[0.75,0,0],[1,0.25,0],[1,0.5,0],[1,0.75,0],[0.75,1,0],[0.5,1,0],[0.25,1,0],[0,0.75,0],[0,0.5,0],[0,0.25,0]];" vertex="1" parent="1">
            <mxGeometry x="295" y="-195" width="240" height="120" as="geometry" />
          </mxCell>
        </object>
        <mxCell id="Bd3FaW5UfeAnrvADQC-J-41" value="PROJECT_BRANCH" style="shape=table;startSize=30;container=1;collapsible=0;childLayout=tableLayout;fontSize=16;align=left;verticalAlign=top;fontStyle=1;spacingLeft=6;spacing=0;resizable=0;strokeWidth=3;" vertex="1" parent="1">
          <mxGeometry x="-70" y="-279" width="200" height="64" as="geometry" />
        </mxCell>
        <mxCell id="Bd3FaW5UfeAnrvADQC-J-42" value="" style="shape=tableRow;horizontal=0;startSize=0;swimlaneHead=0;swimlaneBody=0;strokeColor=inherit;top=0;left=0;bottom=0;right=0;collapsible=0;dropTarget=0;fillColor=none;points=[[0,0.5],[1,0.5]];portConstraint=eastwest;fontSize=12;" vertex="1" parent="Bd3FaW5UfeAnrvADQC-J-41">
          <mxGeometry y="30" width="200" height="34" as="geometry" />
        </mxCell>
        <mxCell id="Bd3FaW5UfeAnrvADQC-J-43" value="&amp;lt;project to analysis &amp;gt;" style="shape=partialRectangle;html=1;whiteSpace=wrap;connectable=0;overflow=hidden;top=0;left=0;bottom=0;right=0;pointerEvents=1;fontSize=12;align=left;spacingLeft=10;spacingRight=4;" vertex="1" parent="Bd3FaW5UfeAnrvADQC-J-42">
          <mxGeometry width="200" height="34" as="geometry">
            <mxRectangle width="200" height="34" as="alternateBounds" />
          </mxGeometry>
        </mxCell>
        <mxCell id="Bd3FaW5UfeAnrvADQC-J-44" value="VOLUME:" style="shape=table;startSize=27;container=1;collapsible=0;childLayout=tableLayout;fontSize=16;align=left;verticalAlign=top;fontStyle=1;spacingLeft=6;spacing=0;resizable=0;strokeWidth=3;" vertex="1" parent="1">
          <mxGeometry x="345" y="-62" width="140" height="64" as="geometry" />
        </mxCell>
        <mxCell id="Bd3FaW5UfeAnrvADQC-J-45" value="" style="shape=tableRow;horizontal=0;startSize=0;swimlaneHead=0;swimlaneBody=0;strokeColor=inherit;top=0;left=0;bottom=0;right=0;collapsible=0;dropTarget=0;fillColor=none;points=[[0,0.5],[1,0.5]];portConstraint=eastwest;fontSize=12;" vertex="1" parent="Bd3FaW5UfeAnrvADQC-J-44">
          <mxGeometry y="27" width="140" height="37" as="geometry" />
        </mxCell>
        <mxCell id="Bd3FaW5UfeAnrvADQC-J-46" value="&amp;lt;project to analysis &amp;gt;" style="shape=partialRectangle;html=1;whiteSpace=wrap;connectable=0;overflow=hidden;top=0;left=0;bottom=0;right=0;pointerEvents=1;fontSize=12;align=left;spacingLeft=10;spacingRight=4;" vertex="1" parent="Bd3FaW5UfeAnrvADQC-J-45">
          <mxGeometry width="140" height="37" as="geometry">
            <mxRectangle width="140" height="37" as="alternateBounds" />
          </mxGeometry>
        </mxCell>
        <object placeholders="1" c4Type="Relationship" c4Description="Import API" label="&lt;div style=&quot;text-align: left; font-size: 15px;&quot;&gt;&lt;div style=&quot;text-align: center; font-size: 15px;&quot;&gt;&lt;b style=&quot;font-size: 15px;&quot;&gt;%c4Description%&lt;/b&gt;&lt;/div&gt;&lt;/div&gt;" id="Bd3FaW5UfeAnrvADQC-J-52">
          <mxCell style="endArrow=blockThin;html=1;fontSize=15;fontColor=#CC0000;strokeWidth=4;endFill=1;strokeColor=#b85450;elbow=vertical;metaEdit=1;endSize=14;startSize=14;jumpStyle=arc;jumpSize=16;rounded=1;edgeStyle=orthogonalEdgeStyle;exitX=1;exitY=0.5;exitDx=0;exitDy=0;fillColor=#f8cecc;entryX=1;entryY=0.5;entryDx=0;entryDy=0;entryPerimeter=0;dashed=1;dashPattern=1 1;labelBackgroundColor=none;" edge="1" parent="1" source="Bd3FaW5UfeAnrvADQC-J-50" target="Bd3FaW5UfeAnrvADQC-J-4">
            <mxGeometry x="-0.728" y="28" width="240" relative="1" as="geometry">
              <mxPoint x="195" y="60" as="sourcePoint" />
              <mxPoint x="624.94" y="375" as="targetPoint" />
              <Array as="points">
                <mxPoint x="280" y="60" />
                <mxPoint x="280" y="30" />
                <mxPoint x="675" y="30" />
                <mxPoint x="675" y="605" />
              </Array>
              <mxPoint x="-20" y="8" as="offset" />
            </mxGeometry>
          </mxCell>
        </object>
        <object placeholders="1" c4Type="Relationship" id="Bd3FaW5UfeAnrvADQC-J-54">
          <mxCell style="endArrow=blockThin;html=1;fontSize=10;fontColor=#404040;strokeWidth=3;endFill=1;strokeColor=#00CC00;elbow=vertical;metaEdit=1;endSize=14;startSize=14;jumpStyle=arc;jumpSize=16;rounded=0;edgeStyle=orthogonalEdgeStyle;exitX=1;exitY=0.5;exitDx=0;exitDy=0;exitPerimeter=0;entryX=0;entryY=0.25;entryDx=0;entryDy=0;" edge="1" parent="1" source="Bd3FaW5UfeAnrvADQC-J-40" target="Bd3FaW5UfeAnrvADQC-J-44">
            <mxGeometry width="240" relative="1" as="geometry">
              <mxPoint x="-255" y="-10" as="sourcePoint" />
              <mxPoint x="205" y="-40" as="targetPoint" />
              <Array as="points">
                <mxPoint x="555" y="-135" />
                <mxPoint x="555" y="-70" />
                <mxPoint x="305" y="-70" />
                <mxPoint x="305" y="-46" />
              </Array>
            </mxGeometry>
          </mxCell>
        </object>
        <mxCell id="Bd3FaW5UfeAnrvADQC-J-55" value="Create VOLUME" style="edgeLabel;html=1;align=center;verticalAlign=middle;resizable=0;points=[];" vertex="1" connectable="0" parent="Bd3FaW5UfeAnrvADQC-J-54">
          <mxGeometry x="0.7411" y="1" relative="1" as="geometry">
            <mxPoint x="239" y="-4" as="offset" />
          </mxGeometry>
        </mxCell>
        <object placeholders="1" c4Type="Relationship" c4Description="Import VOLUME" label="&lt;div style=&quot;text-align: left; font-size: 15px;&quot;&gt;&lt;div style=&quot;text-align: center; font-size: 15px;&quot;&gt;&lt;b style=&quot;font-size: 15px;&quot;&gt;%c4Description%&lt;/b&gt;&lt;/div&gt;&lt;/div&gt;" id="Bd3FaW5UfeAnrvADQC-J-56">
          <mxCell style="endArrow=blockThin;html=1;fontSize=15;fontColor=#CC6600;strokeWidth=4;endFill=1;strokeColor=#d6b656;elbow=vertical;metaEdit=1;endSize=11;startSize=14;jumpStyle=arc;jumpSize=16;rounded=1;edgeStyle=orthogonalEdgeStyle;exitX=1;exitY=0.5;exitDx=0;exitDy=0;entryX=1;entryY=0.5;entryDx=0;entryDy=0;entryPerimeter=0;fillColor=#fff2cc;labelBackgroundColor=none;" edge="1" parent="1" source="Bd3FaW5UfeAnrvADQC-J-45" target="Bd3FaW5UfeAnrvADQC-J-2">
            <mxGeometry x="-0.5108" y="10" width="240" relative="1" as="geometry">
              <mxPoint x="185" y="-223" as="sourcePoint" />
              <mxPoint x="425" y="-185" as="targetPoint" />
              <mxPoint x="1" as="offset" />
              <Array as="points">
                <mxPoint x="485" y="-20" />
                <mxPoint x="605" y="-20" />
                <mxPoint x="605" y="97" />
              </Array>
            </mxGeometry>
          </mxCell>
        </object>
        <mxCell id="Bd3FaW5UfeAnrvADQC-J-62" value="Volume" style="shape=table;startSize=30;container=1;collapsible=0;childLayout=tableLayout;fontSize=16;align=left;verticalAlign=top;fontStyle=1;spacingLeft=6;spacing=0;resizable=0;strokeWidth=3;" vertex="1" parent="1">
          <mxGeometry x="-70" y="-475" width="220" height="66" as="geometry" />
        </mxCell>
        <mxCell id="Bd3FaW5UfeAnrvADQC-J-63" value="" style="shape=tableRow;horizontal=0;startSize=0;swimlaneHead=0;swimlaneBody=0;strokeColor=inherit;top=0;left=0;bottom=0;right=0;collapsible=0;dropTarget=0;fillColor=none;points=[[0,0.5],[1,0.5]];portConstraint=eastwest;fontSize=12;" vertex="1" parent="Bd3FaW5UfeAnrvADQC-J-62">
          <mxGeometry y="30" width="220" height="36" as="geometry" />
        </mxCell>
        <mxCell id="Bd3FaW5UfeAnrvADQC-J-64" value="&lt;b&gt;api.pmccabe_collector.rrd_analytic&lt;/b&gt;&lt;br&gt;&amp;lt;local host path to persist DB data&amp;gt;" style="shape=partialRectangle;html=1;whiteSpace=wrap;connectable=0;overflow=hidden;top=0;left=0;bottom=0;right=0;pointerEvents=1;fontSize=12;align=left;spacingLeft=10;spacingRight=4;" vertex="1" parent="Bd3FaW5UfeAnrvADQC-J-63">
          <mxGeometry width="220" height="36" as="geometry">
            <mxRectangle width="220" height="36" as="alternateBounds" />
          </mxGeometry>
        </mxCell>
        <object placeholders="1" c4Type="Relationship" id="Bd3FaW5UfeAnrvADQC-J-67">
          <mxCell style="endArrow=blockThin;html=1;fontSize=10;fontColor=#404040;strokeWidth=3;endFill=1;strokeColor=#00CC00;elbow=vertical;metaEdit=1;endSize=14;startSize=14;jumpStyle=arc;jumpSize=16;rounded=0;edgeStyle=orthogonalEdgeStyle;exitX=1;exitY=0.75;exitDx=0;exitDy=0;exitPerimeter=0;" edge="1" parent="1" source="Bd3FaW5UfeAnrvADQC-J-31">
            <mxGeometry width="240" relative="1" as="geometry">
              <mxPoint x="-306" y="-20" as="sourcePoint" />
              <mxPoint x="-70" y="-458" as="targetPoint" />
              <Array as="points">
                <mxPoint x="-196" y="-245" />
                <mxPoint x="-196" y="-458" />
              </Array>
            </mxGeometry>
          </mxCell>
        </object>
        <mxCell id="Bd3FaW5UfeAnrvADQC-J-68" value="CREATE" style="edgeLabel;html=1;align=center;verticalAlign=middle;resizable=0;points=[];fontSize=15;fontColor=#006600;" vertex="1" connectable="0" parent="Bd3FaW5UfeAnrvADQC-J-67">
          <mxGeometry x="0.7411" y="1" relative="1" as="geometry">
            <mxPoint x="16" y="-15" as="offset" />
          </mxGeometry>
        </mxCell>
        <object placeholders="1" c4Type="Relationship" c4Description="Import VOLUME" label="&lt;div style=&quot;text-align: left; font-size: 15px;&quot;&gt;&lt;div style=&quot;text-align: center; font-size: 15px;&quot;&gt;&lt;b style=&quot;font-size: 15px;&quot;&gt;%c4Description%&lt;/b&gt;&lt;/div&gt;&lt;/div&gt;" id="Bd3FaW5UfeAnrvADQC-J-69">
          <mxCell style="endArrow=blockThin;html=1;fontSize=15;fontColor=#CC6600;strokeWidth=4;endFill=1;strokeColor=#d6b656;elbow=vertical;metaEdit=1;endSize=11;startSize=14;jumpStyle=arc;jumpSize=16;rounded=1;edgeStyle=orthogonalEdgeStyle;exitX=1;exitY=0.75;exitDx=0;exitDy=0;entryX=1;entryY=0.5;entryDx=0;entryDy=0;entryPerimeter=0;fillColor=#fff2cc;labelBackgroundColor=none;" edge="1" parent="1" source="Bd3FaW5UfeAnrvADQC-J-62" target="Bd3FaW5UfeAnrvADQC-J-3">
            <mxGeometry x="-0.6851" y="10" width="240" relative="1" as="geometry">
              <mxPoint x="205" y="-427" as="sourcePoint" />
              <mxPoint x="635" y="-183" as="targetPoint" />
              <mxPoint as="offset" />
              <Array as="points">
                <mxPoint x="205" y="-425" />
                <mxPoint x="205" y="-430" />
                <mxPoint x="635" y="-430" />
                <mxPoint x="635" y="340" />
              </Array>
            </mxGeometry>
          </mxCell>
        </object>
        <object placeholders="1" c4Type="ServiceBroker" c4Container="Container" c4Technology="Crond" c4Description="Trigger gathering analytics logic by schedule" label="&lt;font style=&quot;font-size: 12px;&quot;&gt;&lt;b style=&quot;font-size: 12px;&quot;&gt;%c4Type%&lt;/b&gt;&lt;/font&gt;&lt;div style=&quot;font-size: 12px;&quot;&gt;[%c4Container%:&amp;nbsp;%c4Technology%]&lt;/div&gt;&lt;br style=&quot;font-size: 12px;&quot;&gt;&lt;div style=&quot;font-size: 12px;&quot;&gt;&lt;font style=&quot;font-size: 12px;&quot;&gt;&lt;font style=&quot;font-size: 12px;&quot;&gt;%c4Description%&lt;/font&gt;&lt;/font&gt;&lt;/div&gt;" id="Bd3FaW5UfeAnrvADQC-J-71">
          <mxCell style="shape=hexagon;size=50;perimeter=hexagonPerimeter2;whiteSpace=wrap;html=1;fixedSize=1;rounded=1;labelBackgroundColor=none;fillColor=#23A2D9;fontSize=12;fontColor=#000000;align=center;strokeColor=#0E7DAD;metaEdit=1;points=[[0.5,0,0],[1,0.25,0],[1,0.5,0],[1,0.75,0],[0.5,1,0],[0,0.75,0],[0,0.5,0],[0,0.25,0]];resizable=0;" vertex="1" parent="1">
            <mxGeometry x="-550" y="59" width="200" height="170" as="geometry" />
          </mxCell>
        </object>
        <mxCell id="Bd3FaW5UfeAnrvADQC-J-72" value="CRON_REPO_UPDATE_SCHEDULE" style="shape=table;startSize=31;container=1;collapsible=0;childLayout=tableLayout;fontSize=16;align=left;verticalAlign=top;fontStyle=1;spacingLeft=6;spacing=0;resizable=0;strokeWidth=3;" vertex="1" parent="1">
          <mxGeometry x="-560" y="-116" width="280" height="66" as="geometry" />
        </mxCell>
        <mxCell id="Bd3FaW5UfeAnrvADQC-J-73" value="" style="shape=tableRow;horizontal=0;startSize=0;swimlaneHead=0;swimlaneBody=0;strokeColor=inherit;top=0;left=0;bottom=0;right=0;collapsible=0;dropTarget=0;fillColor=none;points=[[0,0.5],[1,0.5]];portConstraint=eastwest;fontSize=12;" vertex="1" parent="Bd3FaW5UfeAnrvADQC-J-72">
          <mxGeometry y="31" width="280" height="35" as="geometry" />
        </mxCell>
        <mxCell id="Bd3FaW5UfeAnrvADQC-J-74" value="When and how often trigger analytic gathering" style="shape=partialRectangle;html=1;whiteSpace=wrap;connectable=0;overflow=hidden;top=0;left=0;bottom=0;right=0;pointerEvents=1;fontSize=12;align=left;spacingLeft=10;spacingRight=4;" vertex="1" parent="Bd3FaW5UfeAnrvADQC-J-73">
          <mxGeometry width="280" height="35" as="geometry">
            <mxRectangle width="280" height="35" as="alternateBounds" />
          </mxGeometry>
        </mxCell>
        <object placeholders="1" c4Type="Relationship" id="Bd3FaW5UfeAnrvADQC-J-75">
          <mxCell style="endArrow=blockThin;html=1;fontSize=10;fontColor=#404040;strokeWidth=3;endFill=1;strokeColor=#00CC00;elbow=vertical;metaEdit=1;endSize=14;startSize=14;jumpStyle=arc;jumpSize=16;rounded=0;edgeStyle=orthogonalEdgeStyle;exitX=1;exitY=0.75;exitDx=0;exitDy=0;exitPerimeter=0;entryX=0;entryY=0.25;entryDx=0;entryDy=0;" edge="1" parent="1" source="Bd3FaW5UfeAnrvADQC-J-31" target="Bd3FaW5UfeAnrvADQC-J-72">
            <mxGeometry width="240" relative="1" as="geometry">
              <mxPoint x="-310" y="-231" as="sourcePoint" />
              <mxPoint x="-60" y="-36.799999999999955" as="targetPoint" />
              <Array as="points">
                <mxPoint x="-320" y="-180" />
                <mxPoint x="-610" y="-180" />
                <mxPoint x="-610" y="-99" />
              </Array>
            </mxGeometry>
          </mxCell>
        </object>
        <mxCell id="Bd3FaW5UfeAnrvADQC-J-76" value="SET" style="edgeLabel;html=1;align=center;verticalAlign=middle;resizable=0;points=[];fontSize=15;fontColor=#006600;" vertex="1" connectable="0" parent="Bd3FaW5UfeAnrvADQC-J-75">
          <mxGeometry x="0.7411" y="1" relative="1" as="geometry">
            <mxPoint x="19" y="-88" as="offset" />
          </mxGeometry>
        </mxCell>
        <object placeholders="1" c4Type="Relationship" c4Description="Import ENV variable" label="&lt;div style=&quot;text-align: left; font-size: 15px;&quot;&gt;&lt;div style=&quot;text-align: center; font-size: 15px;&quot;&gt;&lt;b style=&quot;font-size: 15px;&quot;&gt;%c4Description%&lt;/b&gt;&lt;/div&gt;&lt;/div&gt;" id="Bd3FaW5UfeAnrvADQC-J-77">
          <mxCell style="endArrow=blockThin;html=1;fontSize=15;fontColor=#CC0000;strokeWidth=4;endFill=1;strokeColor=#b85450;elbow=vertical;metaEdit=1;endSize=14;startSize=14;jumpStyle=arc;jumpSize=16;rounded=1;edgeStyle=orthogonalEdgeStyle;exitX=1;exitY=0.5;exitDx=0;exitDy=0;entryX=0.5;entryY=0;entryDx=0;entryDy=0;entryPerimeter=0;fillColor=#f8cecc;labelBackgroundColor=none;dashed=1;dashPattern=1 1;" edge="1" parent="1" source="Bd3FaW5UfeAnrvADQC-J-73" target="Bd3FaW5UfeAnrvADQC-J-71">
            <mxGeometry x="0.1505" y="-13" width="240" relative="1" as="geometry">
              <mxPoint x="140" y="-319" as="sourcePoint" />
              <mxPoint x="370" y="-185" as="targetPoint" />
              <mxPoint as="offset" />
            </mxGeometry>
          </mxCell>
        </object>
        <object placeholders="1" c4Type="Export API" id="Bd3FaW5UfeAnrvADQC-J-78">
          <mxCell style="endArrow=blockThin;html=1;fontSize=10;fontColor=#404040;strokeWidth=6;endFill=1;strokeColor=#4D4D4D;elbow=vertical;metaEdit=1;endSize=14;startSize=14;jumpStyle=arc;jumpSize=16;rounded=0;edgeStyle=orthogonalEdgeStyle;exitX=0;exitY=0.5;exitDx=0;exitDy=0;exitPerimeter=0;entryX=1;entryY=0.5;entryDx=0;entryDy=0;" edge="1" parent="1" source="Bd3FaW5UfeAnrvADQC-J-40" target="Bd3FaW5UfeAnrvADQC-J-48">
            <mxGeometry width="240" relative="1" as="geometry">
              <mxPoint x="315" y="107" as="sourcePoint" />
              <mxPoint x="150" y="107" as="targetPoint" />
              <Array as="points">
                <mxPoint x="190" y="-135" />
                <mxPoint x="190" y="23" />
              </Array>
            </mxGeometry>
          </mxCell>
        </object>
        <mxCell id="Bd3FaW5UfeAnrvADQC-J-79" value="Export API" style="edgeLabel;html=1;align=center;verticalAlign=middle;resizable=0;points=[];fontSize=15;labelBackgroundColor=none;fontStyle=1" vertex="1" connectable="0" parent="Bd3FaW5UfeAnrvADQC-J-78">
          <mxGeometry x="-0.1231" y="-4" relative="1" as="geometry">
            <mxPoint x="44" y="-57" as="offset" />
          </mxGeometry>
        </mxCell>
      </root>
    </mxGraphModel>
  </diagram>
</mxfile>
